<?xml version="1.0" encoding="utf-8"?>
<!-- Generator: Adobe Illustrator 24.1.0, SVG Export Plug-In . SVG Version: 6.00 Build 0)  -->
<svg version="1.1" xmlns="http://www.w3.org/2000/svg" xmlns:xlink="http://www.w3.org/1999/xlink" x="0px" y="0px"
	 viewBox="0 0 500.04 109.21" style="enable-background:new 0 0 500.04 109.21;" xml:space="preserve">
<style type="text/css">
	.st0{clip-path:url(#SVGID_2_);fill:#808285;}
	.st1{clip-path:url(#SVGID_2_);fill:#60C3AD;}
	.st2{clip-path:url(#SVGID_2_);fill:#1BA085;}
	.st3{clip-path:url(#SVGID_2_);}
	.st4{fill:#808285;}
</style>
<g id="Layer_2">
</g>
<g id="Layer_1">
	<g>
		<defs>
			<rect id="SVGID_1_" x="20.34" y="20.11" width="504.13" height="71.82"/>
		</defs>
		<clipPath id="SVGID_2_">
			<use xlink:href="#SVGID_1_"  style="overflow:visible;"/>
		</clipPath>
		<path class="st0" d="M121.96,30.6c-5.86,0-11.27,4.79-11.27,11.09c0,5.68,7.63,8.97,15.18,13.05c7.99,4.35,16.51,8.7,16.51,17.93
			c0,12.69-9.5,19.26-21.74,19.26c-5.59,0-10.74-1.51-15.27-4.44c-1.6-1.07-2.4-2.4-2.4-3.91c0-2.04,0.98-3.02,3.02-3.02
			c0.98,0,2.04,0.36,3.11,1.07c3.46,2.13,7.9,3.37,11.8,3.37c7.72,0,14.29-3.37,14.29-11.89c0-5.33-6.39-8.7-13.31-12.34
			c-8.7-4.53-18.46-9.5-18.46-18.73c0-11.63,8.88-18.37,19.97-18.37c4.79,0,10.03,1.33,15.09,4.08c1.69,0.98,2.49,2.57,2.49,4.08
			c0,1.78-1.24,3.46-3.11,3.46c-1.06,0-2.13-0.8-3.37-1.6C131.63,31.93,126.57,30.6,121.96,30.6"/>
		<path class="st0" d="M157.37,43.73c0-2.22,1.15-3.28,3.29-3.28c2.22,0,3.46,1.06,3.46,3.28v43.84c0,2.22-1.15,3.28-3.37,3.28
			s-3.37-1.06-3.37-3.28V43.73z M160.48,21.19c2.48,0,4.44,1.95,4.44,4.44c0,2.48-1.95,4.44-4.44,4.44c-2.49,0-4.44-1.95-4.44-4.44
			C156.04,23.14,157.99,21.19,160.48,21.19"/>
		<path class="st0" d="M199.35,85.27c4.79,0,10.92-1.95,10.92-7.72c0-4.35-5.5-6.83-10.21-8.52c-8.08-2.93-17.84-6.83-17.84-14.38
			c0-10.03,8.43-14.47,17.84-14.47c4.62,0,9.5,0.89,13.76,3.2c1.15,0.62,1.69,1.86,1.69,3.11c0,2.04-1.33,3.11-3.02,3.11
			c-0.62,0-1.33-0.18-1.95-0.53c-2.13-1.24-6.48-2.31-10.65-2.31c-5.24,0-10.65,1.86-10.65,7.1c0,4.08,6.92,6.21,13.58,8.96
			c7.28,3.02,14.73,6.12,14.73,14.11c0,10.92-9.59,14.91-18.37,14.91c-6.39,0-11.54-2.13-16.42-5.24c-0.8-0.53-1.15-1.6-1.15-2.66
			c0-2.49,1.24-3.64,2.93-3.64c0.8,0,1.69,0.35,2.57,0.98C190.21,83.32,194.38,85.27,199.35,85.27"/>
		<path class="st0" d="M248.52,85.27c4.79,0,10.92-1.95,10.92-7.72c0-4.35-5.5-6.83-10.21-8.52c-8.08-2.93-17.84-6.83-17.84-14.38
			c0-10.03,8.43-14.47,17.84-14.47c4.62,0,9.5,0.89,13.76,3.2c1.15,0.62,1.69,1.86,1.69,3.11c0,2.04-1.33,3.11-3.02,3.11
			c-0.62,0-1.33-0.18-1.95-0.53c-2.13-1.24-6.48-2.31-10.65-2.31c-5.24,0-10.65,1.86-10.65,7.1c0,4.08,6.92,6.21,13.58,8.96
			c7.28,3.02,14.73,6.12,14.73,14.11c0,10.92-9.59,14.91-18.37,14.91c-6.39,0-11.54-2.13-16.42-5.24c-0.8-0.53-1.15-1.6-1.15-2.66
			c0-2.49,1.24-3.64,2.93-3.64c0.8,0,1.69,0.35,2.57,0.98C239.38,83.32,243.55,85.27,248.52,85.27"/>
		<path class="st1" d="M33.71,63.8c0,12.59,10.25,22.84,22.84,22.84c12.59,0,22.84-10.25,22.84-22.84c0-7.94-4.18-15.29-10.84-19.43
			c2.31,2.78,3.59,6.28,3.59,9.94c0,8.6-6.99,15.59-15.59,15.59c-8.6,0-15.59-6.99-15.59-15.59c0-3.67,1.28-7.17,3.59-9.94
			C37.88,48.51,33.71,55.86,33.71,63.8"/>
		<path class="st2" d="M56.55,89.37c-14.1,0-25.56-11.47-25.56-25.56c0-3.54,0.72-6.92,2.03-9.99c-0.62-2.18-0.94-4.42-0.94-6.69
			c0-13.51,10.99-24.49,24.49-24.49c13.51,0,24.49,10.99,24.49,24.49c0,2.3-0.32,4.57-0.96,6.78c1.29,3.05,2,6.39,2,9.9
			C82.11,77.9,70.64,89.37,56.55,89.37 M56.25,20.11c-19.83,0-35.91,16.08-35.91,35.91c0,19.83,16.08,35.91,35.91,35.91
			s35.91-16.08,35.91-35.91C92.16,36.18,76.09,20.11,56.25,20.11"/>
		<path class="st1" d="M56.55,37.41c8.43,0,16.42,4.13,21.36,10.91c0.02-0.4,0.03-0.8,0.03-1.2c0-11.78-9.58-21.36-21.36-21.36
			s-21.36,9.58-21.36,21.36c0,0.37,0.01,0.74,0.03,1.11C40.22,41.42,48.02,37.41,56.55,37.41"/>
		<g class="st3">
			<path class="st4" d="M291.82,53.57c0-1.96,0.36-3.77,1.07-5.43c0.71-1.66,1.77-3.1,3.16-4.31c1.39-1.21,3.11-2.16,5.16-2.85
				c2.05-0.69,4.4-1.04,7.07-1.04c1.4,0,2.69,0.09,3.85,0.27c1.16,0.18,2.19,0.41,3.07,0.69c0.88,0.28,1.64,0.59,2.25,0.93
				c0.62,0.34,1.07,0.65,1.36,0.94c0.34,0.34,0.58,0.67,0.71,0.98c0.13,0.31,0.2,0.68,0.2,1.09c0,0.63-0.21,1.14-0.62,1.53
				c-0.41,0.39-0.96,0.58-1.64,0.58c-0.49,0-0.98-0.12-1.47-0.35c-0.5-0.23-1.1-0.49-1.8-0.78c-0.7-0.29-1.57-0.55-2.62-0.78
				c-1.04-0.23-2.34-0.35-3.89-0.35c-1.72,0-3.22,0.21-4.49,0.62c-1.27,0.41-2.34,0.98-3.2,1.71c-0.86,0.73-1.5,1.59-1.93,2.6
				c-0.42,1-0.64,2.1-0.64,3.29c0,1.55,0.35,2.84,1.04,3.87c0.69,1.03,1.61,1.91,2.74,2.63c1.14,0.73,2.43,1.36,3.87,1.89
				c1.44,0.53,2.92,1.08,4.43,1.64c1.51,0.56,2.99,1.18,4.43,1.87c1.44,0.69,2.73,1.56,3.87,2.6c1.14,1.04,2.05,2.31,2.74,3.81
				c0.69,1.5,1.04,3.36,1.04,5.56c0,2.13-0.38,4.09-1.13,5.87c-0.75,1.78-1.86,3.32-3.33,4.62c-1.47,1.3-3.28,2.3-5.45,3.02
				c-2.17,0.71-4.68,1.07-7.54,1.07c-1.65,0-3.13-0.1-4.45-0.31c-1.32-0.21-2.48-0.46-3.47-0.76c-0.99-0.3-1.81-0.63-2.45-0.98
				c-0.64-0.35-1.12-0.68-1.44-1c-0.34-0.34-0.58-0.67-0.71-0.98c-0.13-0.31-0.2-0.68-0.2-1.09c0-0.63,0.21-1.15,0.62-1.55
				c0.41-0.4,0.96-0.6,1.64-0.6c0.48,0,0.97,0.13,1.45,0.4c0.48,0.27,1.12,0.55,1.91,0.85c0.79,0.3,1.79,0.59,3,0.85
				c1.21,0.27,2.79,0.4,4.72,0.4c1.84,0,3.46-0.22,4.85-0.67c1.39-0.45,2.56-1.08,3.51-1.89c0.94-0.81,1.65-1.78,2.13-2.91
				c0.47-1.13,0.71-2.36,0.71-3.69c0-1.67-0.35-3.07-1.04-4.2c-0.69-1.13-1.61-2.08-2.74-2.87c-1.14-0.79-2.43-1.47-3.87-2.04
				c-1.44-0.57-2.92-1.13-4.43-1.69c-1.51-0.56-2.99-1.16-4.43-1.82c-1.44-0.65-2.73-1.47-3.87-2.45s-2.05-2.18-2.74-3.6
				C292.16,57.37,291.82,55.63,291.82,53.57z"/>
			<path class="st4" d="M351.31,67.48c0-1.65-0.17-3.07-0.51-4.24c-0.34-1.18-0.87-2.14-1.6-2.88c-0.73-0.74-1.67-1.28-2.82-1.62
				c-1.15-0.34-2.54-0.51-4.16-0.51c-1.43,0-2.67,0.12-3.71,0.35c-1.04,0.23-1.94,0.48-2.69,0.76c-0.75,0.28-1.38,0.53-1.89,0.76
				c-0.51,0.23-0.96,0.35-1.34,0.35c-0.6,0-1.08-0.18-1.43-0.54c-0.35-0.36-0.53-0.86-0.53-1.49c0-0.31,0.05-0.6,0.16-0.85
				c0.11-0.25,0.29-0.5,0.53-0.75c0.31-0.31,0.84-0.65,1.58-1.01c0.74-0.36,1.64-0.7,2.71-1.02c1.07-0.32,2.26-0.59,3.58-0.81
				c1.32-0.22,2.71-0.32,4.16-0.32c4.46,0,7.8,1.07,10.01,3.2c2.22,2.13,3.33,5.21,3.33,9.23v14.06c0,1.57,0.04,2.86,0.11,3.85
				c0.07,0.99,0.16,1.8,0.25,2.42c0.1,0.62,0.18,1.1,0.25,1.45c0.07,0.35,0.11,0.69,0.11,1c0,0.31-0.05,0.61-0.16,0.87
				c-0.11,0.27-0.27,0.49-0.47,0.67c-0.21,0.18-0.45,0.33-0.73,0.44c-0.28,0.11-0.59,0.16-0.93,0.16c-0.49,0-0.92-0.11-1.29-0.33
				c-0.38-0.22-0.7-0.53-0.96-0.93c-0.27-0.4-0.49-0.9-0.67-1.49c-0.18-0.59-0.33-1.25-0.45-1.98h-0.11
				c-0.8,0.94-1.74,1.79-2.83,2.54c-0.92,0.63-2.07,1.21-3.43,1.74c-1.37,0.53-2.94,0.8-4.71,0.8c-1.89,0-3.58-0.25-5.07-0.76
				c-1.49-0.51-2.74-1.22-3.76-2.13c-1.02-0.91-1.79-1.98-2.33-3.22c-0.53-1.24-0.8-2.57-0.8-4c0-1.57,0.33-2.96,1-4.16
				c0.67-1.2,1.63-2.2,2.89-3.02c1.26-0.81,2.79-1.42,4.6-1.83s3.86-0.62,6.16-0.62c1.26,0,2.39,0.04,3.38,0.13
				c0.99,0.09,1.83,0.19,2.51,0.31c0.8,0.12,1.49,0.27,2.07,0.44V67.48z M351.31,76.65c-0.61-0.17-1.3-0.31-2.08-0.44
				c-0.65-0.12-1.43-0.23-2.31-0.33c-0.89-0.1-1.86-0.14-2.93-0.14c-3.33,0-5.79,0.44-7.38,1.33c-1.59,0.88-2.38,2.19-2.38,3.91
				c0,0.85,0.16,1.63,0.49,2.34c0.33,0.72,0.8,1.34,1.42,1.89c0.62,0.54,1.39,0.97,2.31,1.27c0.92,0.3,1.98,0.45,3.17,0.45
				c1.53,0,2.89-0.28,4.08-0.84c1.19-0.56,2.21-1.17,3.06-1.85c0.97-0.8,1.82-1.7,2.55-2.69V76.65z"/>
			<path class="st4" d="M367.1,56.45c0-0.77,0.22-1.38,0.65-1.8c0.44-0.42,1.11-0.64,2.03-0.64s1.6,0.21,2.04,0.64
				c0.44,0.42,0.65,1.02,0.65,1.8v19.13c0,3.9,0.8,6.74,2.4,8.53c1.6,1.79,3.8,2.69,6.61,2.69c0.85,0,1.64-0.09,2.38-0.27
				c0.74-0.18,1.42-0.43,2.05-0.74c0.63-0.31,1.21-0.67,1.74-1.07c0.53-0.4,1.02-0.8,1.45-1.21c0.99-0.96,1.84-2.06,2.54-3.29V56.45
				c0-0.77,0.22-1.38,0.65-1.8c0.43-0.42,1.11-0.64,2.03-0.64s1.6,0.21,2.04,0.64c0.44,0.42,0.65,1.02,0.65,1.8v32.31
				c0,0.7-0.2,1.25-0.6,1.65c-0.4,0.4-0.95,0.6-1.65,0.6c-0.36,0-0.68-0.05-0.96-0.16c-0.28-0.11-0.52-0.27-0.71-0.49
				c-0.19-0.22-0.35-0.5-0.47-0.83c-0.12-0.34-0.22-0.74-0.29-1.2L392,85.56h-0.11c-0.73,1.09-1.65,2.06-2.76,2.91
				c-0.49,0.36-1.02,0.72-1.62,1.07c-0.59,0.35-1.25,0.66-1.98,0.93c-0.73,0.27-1.52,0.48-2.38,0.65c-0.86,0.17-1.79,0.25-2.78,0.25
				c-2.04,0-3.87-0.32-5.51-0.94c-1.64-0.63-3.03-1.57-4.18-2.84c-1.15-1.26-2.04-2.82-2.65-4.67c-0.62-1.85-0.93-4-0.93-6.45V56.45
				z M384.98,36.75c0.24-0.36,0.5-0.64,0.76-0.84c0.27-0.19,0.6-0.29,1.02-0.29c0.36,0,0.74,0.08,1.13,0.24s0.75,0.38,1.07,0.65
				c0.33,0.28,0.6,0.6,0.82,0.96c0.22,0.36,0.33,0.76,0.33,1.2c0,0.17-0.02,0.32-0.07,0.45c-0.05,0.13-0.11,0.27-0.18,0.4
				c-0.07,0.13-0.15,0.25-0.24,0.36c-0.08,0.11-0.18,0.21-0.27,0.31l-7.12,7.78c-0.27,0.31-0.53,0.55-0.8,0.71
				c-0.27,0.16-0.56,0.24-0.87,0.24c-0.29,0-0.56-0.05-0.82-0.16c-0.25-0.11-0.48-0.25-0.69-0.44c-0.21-0.18-0.36-0.4-0.47-0.65
				c-0.11-0.25-0.16-0.51-0.16-0.78c0-0.24,0.06-0.47,0.18-0.69c0.12-0.22,0.24-0.42,0.36-0.62L384.98,36.75z"/>
			<path class="st4" d="M432.01,39.26c0-0.77,0.22-1.37,0.67-1.8c0.45-0.42,1.12-0.64,2.02-0.64c0.9,0,1.57,0.21,2.02,0.64
				s0.67,1.02,0.67,1.8v49.49c0,0.7-0.2,1.25-0.6,1.65c-0.4,0.4-0.95,0.6-1.65,0.6c-0.36,0-0.69-0.05-0.96-0.16
				c-0.28-0.11-0.52-0.27-0.71-0.49c-0.19-0.22-0.35-0.5-0.47-0.83c-0.12-0.34-0.22-0.74-0.29-1.2l-0.36-2.76h-0.11
				c-0.75,1.09-1.68,2.06-2.8,2.91c-0.94,0.73-2.14,1.39-3.6,2c-1.45,0.6-3.16,0.91-5.12,0.91c-2.21,0-4.21-0.38-6.01-1.13
				c-1.81-0.75-3.36-1.87-4.65-3.36c-1.3-1.49-2.3-3.36-3.02-5.6c-0.71-2.24-1.07-4.86-1.07-7.87c0-3.15,0.44-5.95,1.33-8.41
				c0.88-2.46,2.14-4.54,3.78-6.23c1.64-1.7,3.63-2.99,5.98-3.87s4.99-1.33,7.92-1.33c1.02,0,1.95,0.05,2.8,0.16
				c0.85,0.11,1.59,0.22,2.22,0.35c0.75,0.14,1.43,0.3,2.04,0.47l0.11-0.04c-0.07-1.55-0.11-3.21-0.11-4.98V39.26z M432.01,59.72
				c-0.56-0.29-1.22-0.56-2-0.8c-0.65-0.19-1.47-0.38-2.43-0.56c-0.97-0.18-2.1-0.27-3.38-0.27c-1.89,0-3.62,0.32-5.18,0.96
				c-1.56,0.64-2.9,1.58-4.02,2.81c-1.11,1.23-1.98,2.76-2.6,4.59c-0.62,1.83-0.93,3.93-0.93,6.3c0,2.52,0.24,4.66,0.73,6.42
				c0.48,1.77,1.17,3.22,2.07,4.36c0.9,1.14,1.99,1.97,3.27,2.49c1.28,0.52,2.71,0.78,4.29,0.78c0.85,0,1.64-0.09,2.38-0.27
				c0.74-0.18,1.42-0.43,2.05-0.74c0.63-0.31,1.21-0.67,1.74-1.07c0.53-0.4,1.02-0.8,1.45-1.21c0.99-0.96,1.84-2.06,2.54-3.29V59.72
				z"/>
			<path class="st4" d="M451.81,72.65v0.37c0,2.16,0.3,4.09,0.91,5.79c0.61,1.7,1.46,3.15,2.56,4.34c1.1,1.19,2.42,2.1,3.96,2.72
				c1.54,0.62,3.23,0.93,5.07,0.93c1.45,0,2.68-0.1,3.67-0.31c0.99-0.21,1.84-0.42,2.54-0.65c0.7-0.23,1.3-0.45,1.78-0.65
				c0.48-0.2,0.93-0.31,1.34-0.31c0.29,0,0.54,0.05,0.76,0.14c0.22,0.1,0.41,0.22,0.56,0.38c0.16,0.16,0.28,0.35,0.36,0.58
				c0.09,0.23,0.13,0.47,0.13,0.71c0,0.34-0.07,0.65-0.2,0.93c-0.13,0.28-0.35,0.56-0.64,0.85c-0.29,0.29-0.75,0.6-1.38,0.93
				c-0.63,0.33-1.42,0.64-2.36,0.93c-0.94,0.29-2.04,0.53-3.29,0.74c-1.25,0.2-2.62,0.31-4.13,0.31c-2.57,0-4.91-0.41-7.01-1.24
				c-2.11-0.82-3.91-2-5.4-3.54c-1.49-1.54-2.65-3.4-3.47-5.58c-0.82-2.18-1.24-4.63-1.24-7.34c0-3.22,0.42-6.09,1.27-8.59
				c0.85-2.51,2.02-4.61,3.51-6.31c1.49-1.7,3.25-2.99,5.29-3.87c2.03-0.88,4.24-1.33,6.61-1.33c2.04,0,3.9,0.35,5.6,1.05
				c1.7,0.7,3.16,1.72,4.4,3.05c1.24,1.33,2.2,2.96,2.89,4.87c0.69,1.91,1.04,4.08,1.04,6.51c0,1.19-0.28,2.08-0.84,2.69
				c-0.56,0.61-1.42,0.91-2.58,0.91H451.81z M471.84,68.55c-0.34-3.61-1.32-6.27-2.93-7.99c-1.61-1.72-3.81-2.58-6.6-2.58
				c-1.19,0-2.33,0.22-3.42,0.65c-1.09,0.44-2.08,1.09-2.98,1.96c-0.9,0.87-1.67,1.97-2.33,3.29c-0.65,1.32-1.14,2.88-1.45,4.67
				H471.84z"/>
		</g>
	</g>
</g>
</svg>
