<?xml version="1.0" encoding="utf-8"?>
<!-- Generator: Adobe Illustrator 27.7.0, SVG Export Plug-In . SVG Version: 6.00 Build 0)  -->
<svg version="1.1" id="Camada_1" xmlns="http://www.w3.org/2000/svg" xmlns:xlink="http://www.w3.org/1999/xlink" x="0px" y="0px"
	 viewBox="0 0 500 109.2" style="enable-background:new 0 0 500 109.2;" xml:space="preserve">
<style type="text/css">
	.st0{fill:#FFFFFF;}
</style>
<g id="Layer_2">
</g>
<g id="Layer_1">
	<g>
		<g>
			<path class="st0" d="M122.7,29.6c-5.9,0-11.3,4.8-11.3,11.1c0,5.7,7.6,9,15.2,13c8,4.3,16.5,8.7,16.5,17.9
				c0,12.7-9.5,19.3-21.7,19.3c-5.6,0-10.7-1.5-15.3-4.4c-1.6-1.1-2.4-2.4-2.4-3.9c0-2,1-3,3-3c1,0,2,0.4,3.1,1.1
				c3.5,2.1,7.9,3.4,11.8,3.4c7.7,0,14.3-3.4,14.3-11.9c0-5.3-6.4-8.7-13.3-12.3c-8.7-4.5-18.5-9.5-18.5-18.7
				c0-11.6,8.9-18.4,20-18.4c4.8,0,10,1.3,15.1,4.1c1.7,1,2.5,2.6,2.5,4.1c0,1.8-1.2,3.5-3.1,3.5c-1.1,0-2.1-0.8-3.4-1.6
				C132.4,30.9,127.3,29.6,122.7,29.6"/>
		</g>
		<g>
			<path class="st0" d="M158.1,42.7c0-2.2,1.1-3.3,3.3-3.3c2.2,0,3.5,1.1,3.5,3.3v43.8c0,2.2-1.1,3.3-3.4,3.3s-3.4-1.1-3.4-3.3
				L158.1,42.7L158.1,42.7z M161.3,20.2c2.5,0,4.4,2,4.4,4.4c0,2.5-1.9,4.4-4.4,4.4s-4.4-2-4.4-4.4S158.8,20.2,161.3,20.2"/>
		</g>
		<g>
			<path class="st0" d="M200.1,84.2c4.8,0,10.9-1.9,10.9-7.7c0-4.3-5.5-6.8-10.2-8.5c-8.1-2.9-17.8-6.8-17.8-14.4
				c0-10,8.4-14.5,17.8-14.5c4.6,0,9.5,0.9,13.8,3.2c1.1,0.6,1.7,1.9,1.7,3.1c0,2-1.3,3.1-3,3.1c-0.6,0-1.3-0.2-1.9-0.5
				c-2.1-1.2-6.5-2.3-10.6-2.3c-5.2,0-10.6,1.9-10.6,7.1c0,4.1,6.9,6.2,13.6,9c7.3,3,14.7,6.1,14.7,14.1c0,10.9-9.6,14.9-18.4,14.9
				c-6.4,0-11.5-2.1-16.4-5.2c-0.8-0.5-1.1-1.6-1.1-2.7c0-2.5,1.2-3.6,2.9-3.6c0.8,0,1.7,0.3,2.6,1C191,82.3,195.2,84.2,200.1,84.2"
				/>
		</g>
		<g>
			<path class="st0" d="M249.3,84.2c4.8,0,10.9-1.9,10.9-7.7c0-4.3-5.5-6.8-10.2-8.5c-8.1-2.9-17.8-6.8-17.8-14.4
				c0-10,8.4-14.5,17.8-14.5c4.6,0,9.5,0.9,13.8,3.2c1.1,0.6,1.7,1.9,1.7,3.1c0,2-1.3,3.1-3,3.1c-0.6,0-1.3-0.2-2-0.5
				c-2.1-1.2-6.5-2.3-10.6-2.3c-5.2,0-10.6,1.9-10.6,7.1c0,4.1,6.9,6.2,13.6,9c7.3,3,14.7,6.1,14.7,14.1c0,10.9-9.6,14.9-18.4,14.9
				c-6.4,0-11.5-2.1-16.4-5.2c-0.8-0.5-1.1-1.6-1.1-2.7c0-2.5,1.2-3.6,2.9-3.6c0.8,0,1.7,0.3,2.6,1
				C240.2,82.3,244.3,84.2,249.3,84.2"/>
		</g>
		<g>
			<path class="st0" d="M34.5,62.8c0,12.6,10.2,22.8,22.8,22.8s22.8-10.2,22.8-22.8c0-7.9-4.2-15.3-10.8-19.4
				c2.3,2.8,3.6,6.3,3.6,9.9c0,8.6-7,15.6-15.6,15.6s-15.6-7-15.6-15.6c0-3.7,1.3-7.2,3.6-9.9C38.7,47.5,34.5,54.8,34.5,62.8"/>
		</g>
		<g>
			<path class="st0" d="M57.3,88.3c-14.1,0-25.6-11.5-25.6-25.6c0-3.5,0.7-6.9,2-10c-0.6-2.2-0.9-4.4-0.9-6.7
				c0-13.5,11-24.5,24.5-24.5c13.5,0,24.5,11,24.5,24.5c0,2.3-0.3,4.6-1,6.8c1.3,3,2,6.4,2,9.9C82.9,76.9,71.4,88.3,57.3,88.3
				 M57,19.1c-19.8,0-35.9,16.1-35.9,35.9S37.2,90.9,57,90.9S92.9,74.8,92.9,55C92.9,35.1,76.9,19.1,57,19.1"/>
		</g>
		<g>
			<path class="st0" d="M57.3,36.4c8.4,0,16.4,4.1,21.4,10.9c0-0.4,0-0.8,0-1.2c0-11.8-9.6-21.4-21.4-21.4S36,34.3,36,46.1
				c0,0.4,0,0.7,0,1.1C41,40.4,48.8,36.4,57.3,36.4"/>
		</g>
		<g>
			<g>
				<path class="st0" d="M292.6,52.5c0-2,0.4-3.8,1.1-5.4c0.7-1.7,1.8-3.1,3.2-4.3c1.4-1.2,3.1-2.2,5.2-2.8c2-0.7,4.4-1,7.1-1
					c1.4,0,2.7,0.1,3.9,0.3s2.2,0.4,3.1,0.7s1.6,0.6,2.2,0.9c0.6,0.3,1.1,0.7,1.4,0.9c0.3,0.3,0.6,0.7,0.7,1s0.2,0.7,0.2,1.1
					c0,0.6-0.2,1.1-0.6,1.5s-1,0.6-1.6,0.6c-0.5,0-1-0.1-1.5-0.3c-0.5-0.2-1.1-0.5-1.8-0.8c-0.7-0.3-1.6-0.5-2.6-0.8
					c-1-0.2-2.3-0.3-3.9-0.3c-1.7,0-3.2,0.2-4.5,0.6s-2.3,1-3.2,1.7c-0.9,0.7-1.5,1.6-1.9,2.6c-0.4,1-0.6,2.1-0.6,3.3
					c0,1.5,0.4,2.8,1,3.9s1.6,1.9,2.7,2.6c1.1,0.7,2.4,1.4,3.9,1.9s2.9,1.1,4.4,1.6c1.5,0.6,3,1.2,4.4,1.9c1.4,0.7,2.7,1.6,3.9,2.6
					c1.1,1,2,2.3,2.7,3.8s1,3.4,1,5.6c0,2.1-0.4,4.1-1.1,5.9s-1.9,3.3-3.3,4.6s-3.3,2.3-5.5,3c-2.2,0.7-4.7,1.1-7.5,1.1
					c-1.6,0-3.1-0.1-4.5-0.3s-2.5-0.5-3.5-0.8s-1.8-0.6-2.5-1c-0.6-0.3-1.1-0.7-1.4-1c-0.3-0.3-0.6-0.7-0.7-1
					c-0.1-0.3-0.2-0.7-0.2-1.1c0-0.6,0.2-1.2,0.6-1.6s1-0.6,1.6-0.6c0.5,0,1,0.1,1.5,0.4c0.5,0.3,1.1,0.6,1.9,0.8
					c0.8,0.3,1.8,0.6,3,0.8c1.2,0.3,2.8,0.4,4.7,0.4c1.8,0,3.5-0.2,4.9-0.7s2.6-1.1,3.5-1.9c0.9-0.8,1.6-1.8,2.1-2.9
					c0.5-1.1,0.7-2.4,0.7-3.7c0-1.7-0.4-3.1-1-4.2s-1.6-2.1-2.7-2.9c-1.1-0.8-2.4-1.5-3.9-2s-2.9-1.1-4.4-1.7
					c-1.5-0.6-3-1.2-4.4-1.8c-1.4-0.7-2.7-1.5-3.9-2.5s-2-2.2-2.7-3.6C292.9,56.3,292.6,54.6,292.6,52.5z"/>
				<path class="st0" d="M352.1,66.4c0-1.7-0.2-3.1-0.5-4.2c-0.3-1.2-0.9-2.1-1.6-2.9s-1.7-1.3-2.8-1.6s-2.5-0.5-4.2-0.5
					c-1.4,0-2.7,0.1-3.7,0.3c-1,0.2-1.9,0.5-2.7,0.8s-1.4,0.5-1.9,0.8s-1,0.3-1.3,0.3c-0.6,0-1.1-0.2-1.4-0.5s-0.5-0.9-0.5-1.5
					c0-0.3,0-0.6,0.2-0.8c0.1-0.2,0.3-0.5,0.5-0.8c0.3-0.3,0.8-0.7,1.6-1c0.7-0.4,1.6-0.7,2.7-1c1.1-0.3,2.3-0.6,3.6-0.8
					c1.3-0.2,2.7-0.3,4.2-0.3c4.5,0,7.8,1.1,10,3.2c2.2,2.1,3.3,5.2,3.3,9.2v14.1c0,1.6,0,2.9,0.1,3.8c0.1,1,0.2,1.8,0.2,2.4
					c0.1,0.6,0.2,1.1,0.2,1.4s0.1,0.7,0.1,1s0,0.6-0.2,0.9c-0.1,0.3-0.3,0.5-0.5,0.7c-0.2,0.2-0.5,0.3-0.7,0.4s-0.6,0.2-0.9,0.2
					c-0.5,0-0.9-0.1-1.3-0.3c-0.4-0.2-0.7-0.5-1-0.9c-0.3-0.4-0.5-0.9-0.7-1.5c-0.2-0.6-0.3-1.2-0.5-2h-0.1
					c-0.8,0.9-1.7,1.8-2.8,2.5c-0.9,0.6-2.1,1.2-3.4,1.7c-1.4,0.5-2.9,0.8-4.7,0.8c-1.9,0-3.6-0.2-5.1-0.8c-1.5-0.5-2.7-1.2-3.8-2.1
					c-1-0.9-1.8-2-2.3-3.2c-0.5-1.2-0.8-2.6-0.8-4c0-1.6,0.3-3,1-4.2s1.6-2.2,2.9-3c1.3-0.8,2.8-1.4,4.6-1.8s3.9-0.6,6.2-0.6
					c1.3,0,2.4,0,3.4,0.1s1.8,0.2,2.5,0.3c0.8,0.1,1.5,0.3,2.1,0.4L352.1,66.4L352.1,66.4z M352.1,75.6c-0.6-0.2-1.3-0.3-2.1-0.4
					c-0.6-0.1-1.4-0.2-2.3-0.3c-0.9-0.1-1.9-0.1-2.9-0.1c-3.3,0-5.8,0.4-7.4,1.3c-1.6,0.9-2.4,2.2-2.4,3.9c0,0.8,0.2,1.6,0.5,2.3
					c0.3,0.7,0.8,1.3,1.4,1.9c0.6,0.5,1.4,1,2.3,1.3c0.9,0.3,2,0.4,3.2,0.4c1.5,0,2.9-0.3,4.1-0.8c1.2-0.6,2.2-1.2,3.1-1.8
					c1-0.8,1.8-1.7,2.5-2.7V75.6z"/>
				<path class="st0" d="M367.9,55.4c0-0.8,0.2-1.4,0.6-1.8c0.4-0.4,1.1-0.6,2-0.6s1.6,0.2,2,0.6c0.4,0.4,0.6,1,0.6,1.8v19.1
					c0,3.9,0.8,6.7,2.4,8.5s3.8,2.7,6.6,2.7c0.9,0,1.6-0.1,2.4-0.3s1.4-0.4,2-0.7c0.6-0.3,1.2-0.7,1.7-1.1s1-0.8,1.5-1.2
					c1-1,1.8-2.1,2.5-3.3V55.4c0-0.8,0.2-1.4,0.6-1.8s1.1-0.6,2-0.6s1.6,0.2,2,0.6c0.4,0.4,0.6,1,0.6,1.8v32.3
					c0,0.7-0.2,1.2-0.6,1.7s-1,0.6-1.6,0.6c-0.4,0-0.7-0.1-1-0.2s-0.5-0.3-0.7-0.5s-0.4-0.5-0.5-0.8c-0.1-0.3-0.2-0.7-0.3-1.2
					l-0.3-2.8h-0.1c-0.7,1.1-1.6,2.1-2.8,2.9c-0.5,0.4-1,0.7-1.6,1.1c-0.6,0.3-1.2,0.7-2,0.9s-1.5,0.5-2.4,0.7
					c-0.9,0.2-1.8,0.2-2.8,0.2c-2,0-3.9-0.3-5.5-0.9c-1.6-0.6-3-1.6-4.2-2.8c-1.1-1.3-2-2.8-2.6-4.7c-0.6-1.8-0.9-4-0.9-6.4V55.4z
					 M385.8,35.7c0.2-0.4,0.5-0.6,0.8-0.8c0.3-0.2,0.6-0.3,1-0.3c0.4,0,0.7,0.1,1.1,0.2s0.8,0.4,1.1,0.7c0.3,0.3,0.6,0.6,0.8,1
					s0.3,0.8,0.3,1.2c0,0.2,0,0.3-0.1,0.5c0,0.1-0.1,0.3-0.2,0.4s-0.1,0.2-0.2,0.4c-0.1,0.1-0.2,0.2-0.3,0.3l-7.1,7.8
					c-0.3,0.3-0.5,0.5-0.8,0.7s-0.6,0.2-0.9,0.2c-0.3,0-0.6,0-0.8-0.2c-0.2-0.1-0.5-0.2-0.7-0.4c-0.2-0.2-0.4-0.4-0.5-0.7
					c-0.1-0.2-0.2-0.5-0.2-0.8c0-0.2,0.1-0.5,0.2-0.7c0.1-0.2,0.2-0.4,0.4-0.6L385.8,35.7z"/>
				<path class="st0" d="M432.8,38.2c0-0.8,0.2-1.4,0.7-1.8c0.5-0.4,1.1-0.6,2-0.6s1.6,0.2,2,0.6s0.7,1,0.7,1.8v49.5
					c0,0.7-0.2,1.2-0.6,1.7s-1,0.6-1.6,0.6c-0.4,0-0.7-0.1-1-0.2c-0.3-0.1-0.5-0.3-0.7-0.5s-0.4-0.5-0.5-0.8
					c-0.1-0.3-0.2-0.7-0.3-1.2l-0.4-2.8H433c-0.8,1.1-1.7,2.1-2.8,2.9c-0.9,0.7-2.1,1.4-3.6,2c-1.5,0.6-3.2,0.9-5.1,0.9
					c-2.2,0-4.2-0.4-6-1.1c-1.8-0.8-3.4-1.9-4.6-3.4c-1.3-1.5-2.3-3.4-3-5.6c-0.7-2.2-1.1-4.9-1.1-7.9c0-3.2,0.4-5.9,1.3-8.4
					c0.9-2.5,2.1-4.5,3.8-6.2c1.6-1.7,3.6-3,6-3.9s5-1.3,7.9-1.3c1,0,2,0,2.8,0.2c0.9,0.1,1.6,0.2,2.2,0.3c0.8,0.1,1.4,0.3,2,0.5
					l0.1,0c-0.1-1.5-0.1-3.2-0.1-5L432.8,38.2L432.8,38.2z M432.8,58.7c-0.6-0.3-1.2-0.6-2-0.8c-0.6-0.2-1.5-0.4-2.4-0.6
					c-1-0.2-2.1-0.3-3.4-0.3c-1.9,0-3.6,0.3-5.2,1s-2.9,1.6-4,2.8c-1.1,1.2-2,2.8-2.6,4.6c-0.6,1.8-0.9,3.9-0.9,6.3
					c0,2.5,0.2,4.7,0.7,6.4c0.5,1.8,1.2,3.2,2.1,4.4s2,2,3.3,2.5s2.7,0.8,4.3,0.8c0.9,0,1.6-0.1,2.4-0.3s1.4-0.4,2-0.7
					c0.6-0.3,1.2-0.7,1.7-1.1s1-0.8,1.5-1.2c1-1,1.8-2.1,2.5-3.3L432.8,58.7L432.8,58.7z"/>
				<path class="st0" d="M452.6,71.6V72c0,2.2,0.3,4.1,0.9,5.8c0.6,1.7,1.5,3.2,2.6,4.3s2.4,2.1,4,2.7c1.5,0.6,3.2,0.9,5.1,0.9
					c1.5,0,2.7-0.1,3.7-0.3c1-0.2,1.8-0.4,2.5-0.7s1.3-0.4,1.8-0.7c0.5-0.2,0.9-0.3,1.3-0.3c0.3,0,0.5,0.1,0.8,0.1
					c0.2,0.1,0.4,0.2,0.6,0.4c0.2,0.2,0.3,0.3,0.4,0.6c0.1,0.2,0.1,0.5,0.1,0.7c0,0.3-0.1,0.7-0.2,0.9s-0.4,0.6-0.6,0.8
					s-0.8,0.6-1.4,0.9s-1.4,0.6-2.4,0.9c-0.9,0.3-2,0.5-3.3,0.7c-1.2,0.2-2.6,0.3-4.1,0.3c-2.6,0-4.9-0.4-7-1.2
					c-2.1-0.8-3.9-2-5.4-3.5s-2.6-3.4-3.5-5.6s-1.2-4.6-1.2-7.3c0-3.2,0.4-6.1,1.3-8.6c0.9-2.5,2-4.6,3.5-6.3c1.5-1.7,3.2-3,5.3-3.9
					c2-0.9,4.2-1.3,6.6-1.3c2,0,3.9,0.3,5.6,1s3.2,1.7,4.4,3c1.2,1.3,2.2,3,2.9,4.9s1,4.1,1,6.5c0,1.2-0.3,2.1-0.8,2.7
					s-1.4,0.9-2.6,0.9L452.6,71.6L452.6,71.6z M472.6,67.5c-0.3-3.6-1.3-6.3-2.9-8c-1.6-1.7-3.8-2.6-6.6-2.6c-1.2,0-2.3,0.2-3.4,0.7
					c-1.1,0.4-2.1,1.1-3,2c-0.9,0.9-1.7,2-2.3,3.3c-0.6,1.3-1.1,2.9-1.5,4.7H472.6z"/>
			</g>
		</g>
	</g>
</g>
</svg>
